<mxfile host="app.diagrams.net" modified="2020-10-18T16:34:32.981Z" agent="5.0 (Windows NT 10.0; Win64; x64) AppleWebKit/537.36 (KHTML, like Gecko) Chrome/86.0.4240.75 Safari/537.36" etag="je-V43mWWr5bHdcI-wwv" version="13.7.9" type="github">
  <diagram id="izyvxUAj1RbzFwLLC3PD" name="Page-1">
    <mxGraphModel dx="782" dy="1644" grid="1" gridSize="10" guides="1" tooltips="1" connect="1" arrows="1" fold="1" page="1" pageScale="1" pageWidth="827" pageHeight="1169" math="0" shadow="0">
      <root>
        <mxCell id="0" />
        <mxCell id="1" parent="0" />
        <mxCell id="lS9-oQ-II5_sCI07mWO_-2" value="" style="rounded=1;arcSize=10;dashed=1;strokeColor=#000000;fillColor=none;gradientColor=none;dashPattern=8 3 1 3;strokeWidth=2;" parent="1" vertex="1">
          <mxGeometry x="630" y="120" width="160" height="220" as="geometry" />
        </mxCell>
        <mxCell id="lS9-oQ-II5_sCI07mWO_-3" value="" style="rounded=1;arcSize=10;dashed=1;strokeColor=#000000;fillColor=none;gradientColor=none;dashPattern=8 3 1 3;strokeWidth=2;" parent="1" vertex="1">
          <mxGeometry x="470" y="120" width="320" height="90" as="geometry" />
        </mxCell>
        <mxCell id="lS9-oQ-II5_sCI07mWO_-4" value="" style="edgeStyle=orthogonalEdgeStyle;rounded=0;orthogonalLoop=1;jettySize=auto;html=1;" parent="1" source="lS9-oQ-II5_sCI07mWO_-6" target="lS9-oQ-II5_sCI07mWO_-9" edge="1">
          <mxGeometry relative="1" as="geometry" />
        </mxCell>
        <mxCell id="lS9-oQ-II5_sCI07mWO_-5" value="&lt;font style=&quot;font-size: 14px&quot;&gt;FS syscall&lt;/font&gt;" style="text;html=1;align=center;verticalAlign=middle;resizable=0;points=[];;labelBackgroundColor=#ffffff;" parent="lS9-oQ-II5_sCI07mWO_-4" vertex="1" connectable="0">
          <mxGeometry x="0.3333" y="2" relative="1" as="geometry">
            <mxPoint x="38" y="-10" as="offset" />
          </mxGeometry>
        </mxCell>
        <mxCell id="lS9-oQ-II5_sCI07mWO_-6" value="&lt;span style=&quot;font-size: 16px&quot;&gt;App&lt;/span&gt;" style="rounded=1;whiteSpace=wrap;html=1;" parent="1" vertex="1">
          <mxGeometry x="100" y="30" width="120" height="60" as="geometry" />
        </mxCell>
        <mxCell id="lS9-oQ-II5_sCI07mWO_-7" value="" style="endArrow=none;dashed=1;html=1;" parent="1" edge="1">
          <mxGeometry width="50" height="50" relative="1" as="geometry">
            <mxPoint x="80" y="220" as="sourcePoint" />
            <mxPoint x="410" y="220" as="targetPoint" />
          </mxGeometry>
        </mxCell>
        <mxCell id="lS9-oQ-II5_sCI07mWO_-8" value="" style="edgeStyle=orthogonalEdgeStyle;rounded=0;orthogonalLoop=1;jettySize=auto;html=1;" parent="1" source="lS9-oQ-II5_sCI07mWO_-9" target="lS9-oQ-II5_sCI07mWO_-13" edge="1">
          <mxGeometry relative="1" as="geometry" />
        </mxCell>
        <mxCell id="lS9-oQ-II5_sCI07mWO_-9" value="&lt;font style=&quot;font-size: 16px&quot;&gt;VFS&lt;/font&gt;" style="rounded=1;whiteSpace=wrap;html=1;" parent="1" vertex="1">
          <mxGeometry x="100" y="260" width="120" height="60" as="geometry" />
        </mxCell>
        <mxCell id="lS9-oQ-II5_sCI07mWO_-10" value="&lt;font style=&quot;font-size: 16px&quot;&gt;user space&lt;br&gt;&lt;br&gt;&lt;br&gt;kernel space&lt;/font&gt;" style="text;html=1;resizable=0;points=[];autosize=1;align=left;verticalAlign=top;spacingTop=-4;" parent="1" vertex="1">
          <mxGeometry y="180" width="110" height="60" as="geometry" />
        </mxCell>
        <mxCell id="lS9-oQ-II5_sCI07mWO_-11" value="" style="edgeStyle=orthogonalEdgeStyle;rounded=0;orthogonalLoop=1;jettySize=auto;html=1;" parent="1" source="lS9-oQ-II5_sCI07mWO_-13" target="lS9-oQ-II5_sCI07mWO_-15" edge="1">
          <mxGeometry relative="1" as="geometry" />
        </mxCell>
        <mxCell id="lS9-oQ-II5_sCI07mWO_-12" value="&lt;font style=&quot;font-size: 14px&quot;&gt;/dev/fuse&lt;/font&gt;" style="text;html=1;align=center;verticalAlign=middle;resizable=0;points=[];;labelBackgroundColor=#ffffff;" parent="lS9-oQ-II5_sCI07mWO_-11" vertex="1" connectable="0">
          <mxGeometry x="-0.2667" relative="1" as="geometry">
            <mxPoint x="20" y="-8" as="offset" />
          </mxGeometry>
        </mxCell>
        <mxCell id="lS9-oQ-II5_sCI07mWO_-13" value="&lt;font style=&quot;font-size: 16px&quot;&gt;FUSE&lt;/font&gt;" style="rounded=1;whiteSpace=wrap;html=1;" parent="1" vertex="1">
          <mxGeometry x="260" y="260" width="120" height="60" as="geometry" />
        </mxCell>
        <mxCell id="lS9-oQ-II5_sCI07mWO_-14" value="" style="edgeStyle=orthogonalEdgeStyle;rounded=0;orthogonalLoop=1;jettySize=auto;html=1;" parent="1" source="lS9-oQ-II5_sCI07mWO_-15" target="lS9-oQ-II5_sCI07mWO_-17" edge="1">
          <mxGeometry relative="1" as="geometry" />
        </mxCell>
        <mxCell id="lS9-oQ-II5_sCI07mWO_-15" value="&lt;font style=&quot;font-size: 16px&quot;&gt;libfuse&lt;/font&gt;" style="rounded=1;whiteSpace=wrap;html=1;" parent="1" vertex="1">
          <mxGeometry x="260" y="140" width="120" height="60" as="geometry" />
        </mxCell>
        <mxCell id="lS9-oQ-II5_sCI07mWO_-16" style="edgeStyle=orthogonalEdgeStyle;rounded=0;orthogonalLoop=1;jettySize=auto;html=1;exitX=1;exitY=0.5;exitDx=0;exitDy=0;entryX=0;entryY=0.5;entryDx=0;entryDy=0;" parent="1" source="lS9-oQ-II5_sCI07mWO_-17" target="lS9-oQ-II5_sCI07mWO_-22" edge="1">
          <mxGeometry relative="1" as="geometry" />
        </mxCell>
        <mxCell id="lS9-oQ-II5_sCI07mWO_-17" value="&lt;font style=&quot;font-size: 16px&quot;&gt;FUSE Client&lt;/font&gt;" style="rounded=1;whiteSpace=wrap;html=1;fillColor=#dae8fc;strokeColor=#6c8ebf;" parent="1" vertex="1">
          <mxGeometry x="490" y="140" width="120" height="60" as="geometry" />
        </mxCell>
        <mxCell id="lS9-oQ-II5_sCI07mWO_-18" style="edgeStyle=orthogonalEdgeStyle;curved=1;orthogonalLoop=1;jettySize=auto;html=1;exitX=1;exitY=0.5;exitDx=0;exitDy=0;entryX=-0.008;entryY=0.617;entryDx=0;entryDy=0;entryPerimeter=0;" parent="1" source="lS9-oQ-II5_sCI07mWO_-22" target="lS9-oQ-II5_sCI07mWO_-24" edge="1">
          <mxGeometry relative="1" as="geometry" />
        </mxCell>
        <mxCell id="lS9-oQ-II5_sCI07mWO_-19" value="&lt;font style=&quot;font-size: 14px&quot;&gt;TCP&lt;/font&gt;" style="text;html=1;align=center;verticalAlign=middle;resizable=0;points=[];;labelBackgroundColor=#ffffff;" parent="lS9-oQ-II5_sCI07mWO_-18" vertex="1" connectable="0">
          <mxGeometry x="0.2817" y="-6" relative="1" as="geometry">
            <mxPoint as="offset" />
          </mxGeometry>
        </mxCell>
        <mxCell id="lS9-oQ-II5_sCI07mWO_-20" style="edgeStyle=orthogonalEdgeStyle;curved=1;orthogonalLoop=1;jettySize=auto;html=1;" parent="1" source="lS9-oQ-II5_sCI07mWO_-22" target="lS9-oQ-II5_sCI07mWO_-25" edge="1">
          <mxGeometry relative="1" as="geometry" />
        </mxCell>
        <mxCell id="lS9-oQ-II5_sCI07mWO_-21" value="&lt;font style=&quot;font-size: 14px&quot;&gt;TCP&lt;/font&gt;" style="text;html=1;align=center;verticalAlign=middle;resizable=0;points=[];;labelBackgroundColor=#ffffff;" parent="lS9-oQ-II5_sCI07mWO_-20" vertex="1" connectable="0">
          <mxGeometry x="0.0571" y="3" relative="1" as="geometry">
            <mxPoint as="offset" />
          </mxGeometry>
        </mxCell>
        <mxCell id="lS9-oQ-II5_sCI07mWO_-22" value="&lt;font style=&quot;font-size: 16px&quot;&gt;SDK&lt;br&gt;&lt;/font&gt;" style="rounded=1;whiteSpace=wrap;html=1;fillColor=#ffe6cc;strokeColor=#d79b00;" parent="1" vertex="1">
          <mxGeometry x="650" y="140" width="120" height="60" as="geometry" />
        </mxCell>
        <mxCell id="lS9-oQ-II5_sCI07mWO_-23" value="&lt;font style=&quot;font-size: 16px&quot;&gt;ChubaoFS FUSE Client&lt;br&gt;&lt;/font&gt;" style="text;html=1;strokeColor=none;fillColor=none;align=center;verticalAlign=middle;whiteSpace=wrap;rounded=0;" parent="1" vertex="1">
          <mxGeometry x="490" y="90" width="205" height="20" as="geometry" />
        </mxCell>
        <mxCell id="lS9-oQ-II5_sCI07mWO_-24" value="&lt;font style=&quot;font-size: 16px&quot;&gt;Meta Node&lt;br&gt;&lt;/font&gt;" style="rounded=1;whiteSpace=wrap;html=1;fillColor=#fff2cc;strokeColor=#d6b656;" parent="1" vertex="1">
          <mxGeometry x="840" y="60" width="120" height="60" as="geometry" />
        </mxCell>
        <mxCell id="lS9-oQ-II5_sCI07mWO_-25" value="&lt;font style=&quot;font-size: 16px&quot;&gt;Data Node&lt;br&gt;&lt;/font&gt;" style="rounded=1;whiteSpace=wrap;html=1;fillColor=#f5f5f5;strokeColor=#666666;fontColor=#333333;" parent="1" vertex="1">
          <mxGeometry x="840" y="140" width="120" height="60" as="geometry" />
        </mxCell>
        <mxCell id="lS9-oQ-II5_sCI07mWO_-26" style="edgeStyle=orthogonalEdgeStyle;orthogonalLoop=1;jettySize=auto;html=1;exitX=0.5;exitY=1;exitDx=0;exitDy=0;entryX=0.5;entryY=0;entryDx=0;entryDy=0;curved=1;" parent="1" source="lS9-oQ-II5_sCI07mWO_-28" target="lS9-oQ-II5_sCI07mWO_-22" edge="1">
          <mxGeometry relative="1" as="geometry">
            <Array as="points">
              <mxPoint x="820" y="40" />
              <mxPoint x="820" y="100" />
              <mxPoint x="750" y="100" />
              <mxPoint x="750" y="130" />
              <mxPoint x="710" y="130" />
            </Array>
          </mxGeometry>
        </mxCell>
        <mxCell id="lS9-oQ-II5_sCI07mWO_-27" value="HTTP" style="text;html=1;align=center;verticalAlign=middle;resizable=0;points=[];;labelBackgroundColor=#ffffff;" parent="lS9-oQ-II5_sCI07mWO_-26" vertex="1" connectable="0">
          <mxGeometry x="-0.4909" y="-3" relative="1" as="geometry">
            <mxPoint as="offset" />
          </mxGeometry>
        </mxCell>
        <mxCell id="lS9-oQ-II5_sCI07mWO_-28" value="&lt;font style=&quot;font-size: 16px&quot;&gt;Master&lt;br&gt;&lt;/font&gt;" style="rounded=1;whiteSpace=wrap;html=1;fillColor=#e1d5e7;strokeColor=#9673a6;" parent="1" vertex="1">
          <mxGeometry x="840" y="-20" width="120" height="60" as="geometry" />
        </mxCell>
        <mxCell id="lS9-oQ-II5_sCI07mWO_-29" style="edgeStyle=orthogonalEdgeStyle;rounded=0;orthogonalLoop=1;jettySize=auto;html=1;entryX=0.5;entryY=1;entryDx=0;entryDy=0;" parent="1" source="lS9-oQ-II5_sCI07mWO_-30" target="lS9-oQ-II5_sCI07mWO_-22" edge="1">
          <mxGeometry relative="1" as="geometry" />
        </mxCell>
        <mxCell id="lS9-oQ-II5_sCI07mWO_-30" value="&lt;font style=&quot;font-size: 16px&quot;&gt;Object Node&lt;/font&gt;" style="rounded=1;whiteSpace=wrap;html=1;fillColor=#f8cecc;strokeColor=#b85450;" parent="1" vertex="1">
          <mxGeometry x="650" y="260" width="120" height="60" as="geometry" />
        </mxCell>
        <mxCell id="lS9-oQ-II5_sCI07mWO_-31" value="&lt;font style=&quot;font-size: 16px&quot;&gt;ChubaoFS Object Node&lt;br&gt;&lt;/font&gt;" style="text;html=1;strokeColor=none;fillColor=none;align=center;verticalAlign=middle;whiteSpace=wrap;rounded=0;" parent="1" vertex="1">
          <mxGeometry x="790" y="270" width="205" height="20" as="geometry" />
        </mxCell>
        <mxCell id="lS9-oQ-II5_sCI07mWO_-32" value="" style="endArrow=none;dashed=1;html=1;curved=1;" parent="1" edge="1">
          <mxGeometry width="50" height="50" relative="1" as="geometry">
            <mxPoint x="80" y="160" as="sourcePoint" />
            <mxPoint x="230" y="160" as="targetPoint" />
            <Array as="points">
              <mxPoint x="160" y="120" />
            </Array>
          </mxGeometry>
        </mxCell>
        <mxCell id="lS9-oQ-II5_sCI07mWO_-33" style="edgeStyle=orthogonalEdgeStyle;curved=1;orthogonalLoop=1;jettySize=auto;html=1;exitX=0.25;exitY=1;exitDx=0;exitDy=0;" parent="1" source="lS9-oQ-II5_sCI07mWO_-34" edge="1">
          <mxGeometry relative="1" as="geometry">
            <mxPoint x="180" y="140" as="targetPoint" />
          </mxGeometry>
        </mxCell>
        <mxCell id="lS9-oQ-II5_sCI07mWO_-34" value="&lt;font style=&quot;font-size: 16px&quot;&gt;POSIX-compatible interface&lt;/font&gt;" style="text;html=1;strokeColor=none;fillColor=none;align=center;verticalAlign=middle;whiteSpace=wrap;rounded=0;" parent="1" vertex="1">
          <mxGeometry x="250" y="70" width="150" height="20" as="geometry" />
        </mxCell>
        <mxCell id="lS9-oQ-II5_sCI07mWO_-35" value="" style="endArrow=none;dashed=1;html=1;curved=1;" parent="1" edge="1">
          <mxGeometry width="50" height="50" relative="1" as="geometry">
            <mxPoint x="560" y="290" as="sourcePoint" />
            <mxPoint x="720" y="400" as="targetPoint" />
            <Array as="points">
              <mxPoint x="590" y="350" />
            </Array>
          </mxGeometry>
        </mxCell>
        <mxCell id="lS9-oQ-II5_sCI07mWO_-36" value="&lt;font style=&quot;font-size: 16px&quot;&gt;S3-compatible interface&lt;/font&gt;" style="text;html=1;strokeColor=none;fillColor=none;align=center;verticalAlign=middle;whiteSpace=wrap;rounded=0;" parent="1" vertex="1">
          <mxGeometry x="450" y="320" width="150" height="20" as="geometry" />
        </mxCell>
        <mxCell id="lS9-oQ-II5_sCI07mWO_-37" style="edgeStyle=orthogonalEdgeStyle;curved=1;orthogonalLoop=1;jettySize=auto;html=1;exitX=0.5;exitY=0;exitDx=0;exitDy=0;" parent="1" source="lS9-oQ-II5_sCI07mWO_-38" target="lS9-oQ-II5_sCI07mWO_-30" edge="1">
          <mxGeometry relative="1" as="geometry" />
        </mxCell>
        <mxCell id="lS9-oQ-II5_sCI07mWO_-38" value="&lt;span style=&quot;font-size: 16px&quot;&gt;App&lt;/span&gt;" style="rounded=1;whiteSpace=wrap;html=1;" parent="1" vertex="1">
          <mxGeometry x="470" y="420" width="120" height="60" as="geometry" />
        </mxCell>
        <mxCell id="lS9-oQ-II5_sCI07mWO_-39" value="&lt;font style=&quot;font-size: 14px&quot;&gt;HTTP&lt;/font&gt;" style="text;html=1;align=center;verticalAlign=middle;resizable=0;points=[];;labelBackgroundColor=#ffffff;" parent="1" vertex="1" connectable="0">
          <mxGeometry x="550" y="400" as="geometry">
            <mxPoint x="38" y="-10" as="offset" />
          </mxGeometry>
        </mxCell>
        <mxCell id="f2U7aA58ncsS-Ey-a0Ab-5" style="edgeStyle=orthogonalEdgeStyle;curved=1;orthogonalLoop=1;jettySize=auto;html=1;exitX=0.5;exitY=1;exitDx=0;exitDy=0;entryX=0.5;entryY=0;entryDx=0;entryDy=0;" edge="1" parent="1" source="f2U7aA58ncsS-Ey-a0Ab-1" target="lS9-oQ-II5_sCI07mWO_-22">
          <mxGeometry relative="1" as="geometry" />
        </mxCell>
        <mxCell id="f2U7aA58ncsS-Ey-a0Ab-1" value="&lt;font style=&quot;font-size: 16px&quot;&gt;Cgo libsdk&lt;/font&gt;" style="rounded=1;whiteSpace=wrap;html=1;fillColor=#d5e8d4;strokeColor=#82b366;" vertex="1" parent="1">
          <mxGeometry x="650" y="20" width="120" height="60" as="geometry" />
        </mxCell>
        <mxCell id="f2U7aA58ncsS-Ey-a0Ab-6" style="edgeStyle=orthogonalEdgeStyle;curved=1;orthogonalLoop=1;jettySize=auto;html=1;exitX=0.5;exitY=1;exitDx=0;exitDy=0;entryX=0.5;entryY=0;entryDx=0;entryDy=0;" edge="1" parent="1" source="f2U7aA58ncsS-Ey-a0Ab-3" target="f2U7aA58ncsS-Ey-a0Ab-1">
          <mxGeometry relative="1" as="geometry" />
        </mxCell>
        <mxCell id="f2U7aA58ncsS-Ey-a0Ab-3" value="&lt;font style=&quot;font-size: 16px&quot;&gt;Java API&lt;/font&gt;" style="rounded=1;whiteSpace=wrap;html=1;fillColor=#d5e8d4;strokeColor=#82b366;" vertex="1" parent="1">
          <mxGeometry x="650" y="-60" width="120" height="60" as="geometry" />
        </mxCell>
        <mxCell id="f2U7aA58ncsS-Ey-a0Ab-7" style="edgeStyle=orthogonalEdgeStyle;curved=1;orthogonalLoop=1;jettySize=auto;html=1;exitX=0.5;exitY=1;exitDx=0;exitDy=0;entryX=0.5;entryY=0;entryDx=0;entryDy=0;" edge="1" parent="1" source="f2U7aA58ncsS-Ey-a0Ab-4" target="f2U7aA58ncsS-Ey-a0Ab-3">
          <mxGeometry relative="1" as="geometry" />
        </mxCell>
        <mxCell id="f2U7aA58ncsS-Ey-a0Ab-4" value="&lt;font style=&quot;font-size: 16px&quot;&gt;HDFS compatible API&lt;/font&gt;" style="rounded=1;whiteSpace=wrap;html=1;fillColor=#d5e8d4;strokeColor=#82b366;" vertex="1" parent="1">
          <mxGeometry x="650" y="-140" width="120" height="60" as="geometry" />
        </mxCell>
        <mxCell id="f2U7aA58ncsS-Ey-a0Ab-8" value="" style="rounded=1;arcSize=10;dashed=1;strokeColor=#000000;fillColor=none;gradientColor=none;dashPattern=8 3 1 3;strokeWidth=2;" vertex="1" parent="1">
          <mxGeometry x="630" y="-160" width="160" height="370" as="geometry" />
        </mxCell>
      </root>
    </mxGraphModel>
  </diagram>
</mxfile>
